<svg xmlns="http://www.w3.org/2000/svg" version="1.1" xmlns:xlink="http://www.w3.org/1999/xlink" xmlns:svgjs="http://svgjs.dev/svgjs" width="2000" height="1500" viewBox="0 0 2000 1500"><rect width="2000" height="1500" fill="#ffffff"></rect><g transform="matrix(0.75,0,0,0.75,249.090909090909,545.8249378061115)"><svg viewBox="0 0 396 108" data-background-color="#ffffff" preserveAspectRatio="xMidYMid meet" height="545" width="2000" xmlns="http://www.w3.org/2000/svg" xmlns:xlink="http://www.w3.org/1999/xlink"><g id="tight-bounds" transform="matrix(1,0,0,1,0.2400000000000091,-0.05282760381660978)"><svg viewBox="0 0 395.52 108.1056552076332" height="108.1056552076332" width="395.52"><g><svg viewBox="0 0 557.0495844180411 152.25579062159215" height="108.1056552076332" width="395.52"><g><svg viewBox="0 0 395.5199999999999 152.25579062159215" height="152.25579062159215" width="395.5199999999999"><g id="textblocktransform"><svg viewBox="0 0 395.5199999999999 152.25579062159215" height="152.25579062159215" width="395.5199999999999" id="textblock"><g><svg viewBox="0 0 395.5199999999999 152.25579062159215" height="152.25579062159215" width="395.5199999999999"><g transform="matrix(1,0,0,1,0,0)"><svg width="395.5199999999999" viewBox="3 -34.55 91.69 35.3" height="152.25579062159215" data-palette-color="#000000"><path d="M24.6-34.55L24.6 0 16.5 0 7.75-28.3Q8.15-24.7 8.38-21.68 8.6-18.65 8.6-14.5L8.6-14.5 8.6 0 3 0 3-34.55 11.05-34.55 19.8-6.25Q19.5-8.05 19.23-11.35 18.95-14.65 18.95-18.05L18.95-18.05 18.95-34.55 24.6-34.55ZM39.85-27.15Q44.85-27.15 47.62-23.65 50.4-20.15 50.4-13.25L50.4-13.25Q50.4-6.65 47.6-2.95 44.8 0.75 39.85 0.75L39.85 0.75Q34.9 0.75 32.1-2.88 29.3-6.5 29.3-13.25L29.3-13.25Q29.3-19.95 32.1-23.55 34.9-27.15 39.85-27.15L39.85-27.15ZM39.85-22.5Q37.7-22.5 36.7-20.38 35.7-18.25 35.7-13.25L35.7-13.25Q35.7-8.2 36.7-6.08 37.7-3.95 39.85-3.95L39.85-3.95Q42-3.95 43-6.08 44-8.2 44-13.25L44-13.25Q44-18.3 43-20.4 42-22.5 39.85-22.5L39.85-22.5ZM67.34-26.45L73.39-26.45 66.5 0 59.24 0 52.14-26.45 58.49-26.45 62.84-4.95 67.34-26.45ZM93.19-6.4Q93.19-5.1 93.54-4.48 93.89-3.85 94.69-3.45L94.69-3.45 93.44 0.65Q91.39 0.4 90.17-0.45 88.94-1.3 88.34-3.05L88.34-3.05Q86.04 0.75 81.89 0.75L81.89 0.75Q78.59 0.75 76.64-1.48 74.69-3.7 74.69-7.4L74.69-7.4Q74.69-11.7 77.37-13.95 80.04-16.2 85.14-16.2L85.14-16.2 87.19-16.2 87.19-18.05Q87.19-20.55 86.32-21.58 85.44-22.6 83.49-22.6L83.49-22.6Q81.14-22.6 77.64-21.3L77.64-21.3 76.24-25.3Q78.24-26.2 80.39-26.68 82.54-27.15 84.49-27.15L84.49-27.15Q93.19-27.15 93.19-18.35L93.19-18.35 93.19-6.4ZM83.54-3.7Q85.94-3.7 87.19-7L87.19-7 87.19-12.55 85.74-12.55Q83.19-12.55 82.02-11.4 80.84-10.25 80.84-7.85L80.84-7.85Q80.84-5.8 81.54-4.75 82.24-3.7 83.54-3.7L83.54-3.7Z" opacity="1" transform="matrix(1,0,0,1,0,0)" fill="#000000" class="wordmark-text-0" data-fill-palette-color="primary" id="text-0"></path></svg></g></svg></g></svg></g></svg></g><g transform="matrix(1,0,0,1,431.4639380267829,2.4817693871319477)"><svg viewBox="0 0 125.5856463912583 147.29225184732826" height="147.29225184732826" width="125.5856463912583"><g><svg xmlns="http://www.w3.org/2000/svg" xml:space="preserve" fill-rule="evenodd" clip-rule="evenodd" style="shape-rendering:geometricPrecision;text-rendering:geometricPrecision;image-rendering:optimizeQuality" viewBox="4983.743898673693 659.863898673706 50032.5022026526 58680.272202652595" x="0" y="0" height="147.29225184732826" width="125.5856463912583" class="icon-icon-0" data-fill-palette-color="accent" id="icon-0"><path d="M29601.47 58959.76c-143.39-2668.87-328.84-5359.39-515.71-8070.68-191.95-2785.09-385.42-5592.25-538.33-8466.31-2008.1 1621.54-3978.71 3075.58-5857.85 4344.5-114.33 77.12-269.56 46.95-346.68-67.38s-46.95-269.56 67.38-346.68c1961.9-1324.81 4017.83-2846.94 6105.12-4545.49-141.88-2784.51-243.18-5634.35-265.98-8590.06-1752.43 1652.8-3467.29 3146.5-5160.51 4621.33-1026.85 894.42-2045.85 1782-3026.36 2662.52-163.96 147.56-416.51 134.27-564.07-29.69-138.66-154.07-135.28-386.37 1.69-536.27 879.91-979.86 1766.84-1998.11 2660.6-3024.21 1532.67-1759.61 3085.69-3542.58 4814.99-5365.24-2487.31-24.23-4886.39-112.85-7231.31-234.45-803.01 913.96-1563.96 1807.12-2281.11 2675.84-745.53 903.09-1457.08 1794.95-2132.08 2670.71-84.13 108.94-240.67 129.06-349.61 44.93s-129.06-240.67-44.93-349.61c674.03-874.49 1388.76-1770.17 2141.86-2682.43 658.25-797.36 1336.07-1596.28 2031.42-2393.19-2333.49-127.19-4615.96-284.49-6881.25-440.64-2308.66-159.13-4599.67-317.06-6866.35-438.82-220.05-11.21-389.34-198.7-378.13-418.75 10.54-206.96 177.02-369 379.86-378.22 2266.13-121.75 4556.56-279.64 6864.64-438.73 3037.93-209.4 6106.7-420.9 9288.07-559.05 3.87-4.86 7.94-9.62 12.23-14.25 565.61-610.78 1131.32-1210.38 1695.84-1796.85 384.92-399.9 768.24-793.39 1149.57-1179.91-753.52-847.69-1485.79-1688.35-2213.45-2523.75-894.42-1026.86-1782-2045.87-2662.55-3026.39-147.56-163.96-134.27-416.51 29.69-564.07 154.07-138.66 386.37-135.28 536.27 1.69 979.94 879.99 1998.28 1767 3024.47 2660.83 835.49 727.73 1676.26 1460.07 2524.2 2213.84 334.17-329.28 674.62-661.12 1020.97-995.27 566.95-546.97 1130.18-1080.54 1688.76-1600.24a250.4 250.4 0 0 1 37.67-28.91c154.5-4357.94 441.52-8522.81 725.25-12639.49 186.91-2711.87 372.4-5402.98 515.8-8072.4 11.21-220.05 198.7-389.34 418.75-378.13 206.96 10.54 369 177.01 378.22 379.85 143.39 2668.86 328.84 5359.39 515.71 8070.68 221.44 3212.88 444.88 6455.12 605.77 9795.57 1472.79-1277.24 2920.65-2469.08 4324.58-3565.52 1450.79-1133.05 2851.43-2162.07 4181.36-3076.41-209.86-391.09-328.93-838.17-328.93-1313.04 0-767.98 311.32-1463.29 814.64-1966.61s1198.64-814.64 1966.61-814.64c767.98 0 1463.29 311.32 1966.61 814.64a2794.4 2794.4 0 0 1 297.16 350.61c1815.7-986.88 3392.09-1648.6 4643.52-1940.52 1320.67-308.08 2306.02-206.53 2865.99 353.44 625.92 625.92 738.31 1829.18 375.22 3463.33-350.13 1575.85-1142.31 3579.41-2339.7 5867.93-63.63 121.88-214.05 169.1-335.93 105.47s-169.1-214.05-105.47-335.93c1177.07-2249.68 1953.98-4211.01 2294.78-5744.89 324.5-1460.51 254.88-2505.09-242.42-3002.39-427.54-427.54-1254.08-487.77-2399.19-220.64-1204.93 281.08-2733.9 923.79-4503.92 1884.85 169.68 359.6 264.6 761.39 264.6 1185.35 0 767.97-311.32 1463.29-814.64 1966.61s-1198.63 814.64-1966.61 814.64c-767.97 0-1463.29-311.32-1966.61-814.64-74.81-74.81-145.34-153.89-211.27-236.79-1325.22 911.27-2715.17 1932.28-4149.16 3052.21-1481.01 1156.64-3012.51 2421.17-4572.07 3781.9a250 250 0 0 1-29.57 22.25c107.35 2356.26 181.85 4763.12 200.99 7244.62 1752.43-1652.8 3467.29-3146.5 5160.51-4621.33 1026.85-894.4 2045.84-1781.98 3026.36-2662.52 163.96-147.56 416.51-134.27 564.07 29.69 138.66 154.07 135.28 386.37-1.69 536.27-880 979.94-1767.01 1998.3-2660.86 3024.5-1532.61 1759.52-3085.55 3542.4-4814.75 5364.97 2998.69 29.22 5869.18 151.98 8671.08 313.34 1562.54-1882.96 2968.01-3731.89 4205.83-5504.98 78.74-112.72 233.96-140.26 346.68-61.52s140.26 233.96 61.52 346.68c-1186.29 1699.28-2521.8 3463.55-3996.82 5256.05 1841.81 109.99 3655.71 234.99 5458.71 359.27 2308.67 159.13 4599.67 317.06 6866.37 438.82 220.05 11.21 389.34 198.7 378.13 418.75-10.54 206.96-177.02 369-379.86 378.22-2266.12 121.75-4556.55 279.64-6864.63 438.73-2498.46 172.22-5017.8 345.84-7603.47 478.93-1174.19 1327.26-2420.35 2660.52-3734.66 3985.37 473.49 539.05 940.75 1075.49 1406.13 1609.78 894.33 1026.76 1781.83 2045.66 2662.29 3026.1 147.56 163.96 134.27 416.51-29.69 564.07-154.07 138.66-386.37 135.28-536.27-1.69-979.93-879.97-1998.28-1766.98-3024.47-2660.83-535.91-466.79-1073.99-935.48-1614.75-1410.5-1232.76 1202.01-2477.21 2351.13-3720.58 3443.07-162.33 3774.19-413.18 7414.32-661.52 11017.52-186.91 2711.87-372.4 5402.97-515.8 8072.4-11.21 220.05-198.7 389.34-418.75 378.13-206.96-10.54-369-177.01-378.22-379.85m-8571.55-12270.42c580.48 0 1106.05 235.32 1486.51 615.77 380.45 380.46 615.77 906.03 615.77 1486.51s-235.32 1106.05-615.77 1486.5c-380.46 380.45-906.03 615.77-1486.51 615.77s-1106.05-235.32-1486.5-615.77-615.77-906.02-615.77-1486.5 235.32-1106.05 615.77-1486.51c380.45-380.45 906.02-615.77 1486.5-615.77m920.89 1181.39c-235.64-235.63-561.24-381.39-920.89-381.39s-685.24 145.75-920.88 381.39c-235.63 235.64-381.39 561.24-381.39 920.89s145.75 685.24 381.39 920.88 561.23 381.39 920.88 381.39 685.25-145.76 920.89-381.39c235.64-235.64 381.39-561.23 381.39-920.88s-145.76-685.25-381.39-920.89m21928.45-38320.2c-358.51-358.51-853.84-580.26-1400.99-580.26-547.14 0-1042.48 221.75-1400.99 580.26s-580.26 853.84-580.26 1400.99c0 547.14 221.75 1042.48 580.26 1400.99s853.85 580.26 1400.99 580.26c547.15 0 1042.48-221.75 1400.99-580.26s580.26-853.85 580.26-1400.99c0-547.15-221.75-1042.48-580.26-1400.99M22222.52 28574.35c1553.32-61.64 3134.61-104.68 4753.26-120.45-787.71-830.24-1538.83-1652.25-2268.13-2467.56-386.25 391.15-760.69 775.17-1123.36 1151.95-470.08 488.36-924 967.14-1361.77 1436.06m3764.18-3866.4c748.03 669.12 1501.83 1356.74 2262.72 2074.37 11.33-1469.04 42.05-2911.92 87.51-4333.63-453.52 424.89-906.1 855.1-1357.15 1290.25-324.62 313.18-655.67 636.18-993.08 969.01m13482 6643.12c-2094.44 101.14-4234.63 173.5-6444.46 195.03 1082.22 1140.65 2095.41 2265.74 3077.77 3379.31 1180.31-1190.53 2303.4-2385.38 3366.69-3574.34m-4548.64 4746.2c-1044.92-921.88-2100.21-1871.13-3169.48-2879.61-15.69 2033.65-68.54 4017.18-146.19 5963.81 1105.63-981.27 2213.78-2010.29 3315.67-3084.2m-9501.65-10825.42l-99.79 99.69-46.79 46.81c934.5 1046.02 1898.96 2097.06 2918.48 3149.82l-0.35 0.34c69.83 71.77 112.85 169.75 112.85 277.79 0 220.05-178.39 398.44-398.44 398.44-5499.43 17.09-10603 368.89-15622.48 714.88l-586.18 40.38 586.16 40.38c5014.28 345.63 10112.49 697.04 15605.39 714.81 105.86-4.52 213.28 32.87 295.23 112.57 157.92 153.6 161.41 406.15 7.81 564.07-1434.22 1480.99-2759.5 2958.56-4045.68 4423.54 1399.1-1228.33 2809.41-2492.04 4222.16-3851.31l0.35 0.36c71.62-68.92 168.96-111.3 276.21-111.3 220.05 0 398.44 178.39 398.44 398.44 6.21 3054.07 100.59 6002.6 241.24 8884.67 495.98-412.47 993.73-835.06 1492.46-1267.55 107.54-2472.53 177.09-4997.38 182.68-7598.82-4.83-105.52 32-212.73 111-294.86 152.73-158.78 405.28-163.67 564.06-10.94 1290.44 1241.59 2578.84 2403.44 3858.52 3531.44l43.93-43.57c-1186.26-1345.77-2410.27-2701.5-3725.97-4060.1l0.35-0.34c-69.83-71.77-112.85-169.75-112.85-277.79 0-220.05 178.39-398.44 398.44-398.44 2792.46-8.68 5482.8-103.68 8111.94-240.38 287.04-328.79 569.46-656.94 847.15-984.24-2892.79-160.49-5855.06-275.84-8942-285.83-105.86 4.52-213.28-32.87-295.23-112.57-157.92-153.6-161.41-406.15-7.81-564.07 1434.21-1480.97 2759.46-2958.54 4045.62-4423.5-1399.07 1228.31-2809.36 2492-4222.09 3851.25l-0.35-0.36c-71.62 68.92-168.96 111.3-276.21 111.3-220.05 0-398.44-178.39-398.44-398.44-13.29-6537.32-430.55-12591.15-840.86-18544.38-39.3-570.17-78.53-1139.42-117.36-1708.48-38.83 569.06-78.06 1138.31-117.36 1708.48-409.93 5947.67-826.77 11995.77-840.8 18526.08 4.83 105.52-32 212.73-111 294.86-152.73 158.78-405.28 163.67-564.06 10.94-984.97-947.68-1968.75-1848.9-2948.37-2724.07m-479.65-227.48l26.34-26.35 79.32-79.25c-300.37-266.72-600.3-531.22-899.73-794.1 262.86 299.4 527.34 599.32 794.07 899.7M11506.23 41138.35c75.5-114.88 229.85-146.79 344.73-71.29s146.79 229.85 71.29 344.73c-1789.62 2716.56-3059.99 5099.46-3710.64 6953.99-607.91 1732.68-673.69 2968.23-109.66 3532.26 535.29 535.29 1741.8 538.52 3437.76 68.8 1782.56-493.7 4069.67-1511.87 6667.32-2990.62 119.73-67.95 271.9-25.98 339.85 93.75s25.98 271.9-93.75 339.85c-2632.81 1498.77-4959 2532.97-6780.6 3037.48-1876.89 519.83-3251.63 476.73-3924.1-195.74-713.21-713.21-682.26-2126.68-7.52-4049.84 663.64-1891.55 1952.75-4311.96 3765.32-7063.37m30171.78-11572.36l-85.51 101.48a92695 92695 0 0 1-691.89 810.37c2307.97-126.64 4571.16-282.62 6817.5-437.46l586.16-40.38-586.17-40.38c-1993.57-137.42-4000.45-275.72-6040.09-393.63M30744.72 40593.06c-391.97 336.42-783.54 667.07-1174.33 991.77-85.5 71.04-170.94 141.75-256.33 212.19 157.17 3069.81 363.75 6066.91 568.58 9038.94 39.3 570.17 78.53 1139.42 117.36 1708.48 38.83-569.06 78.06-1138.31 117.36-1708.48 231.53-3359.32 465.25-6750.7 627.36-10242.9M19779.43 32334.3c90.6-103.55 248.01-114.04 351.56-23.44s114.04 248.01 23.44 351.56c-3759.73 4286.74-6703.28 8251.37-8464.03 11345.72-1663.65 2923.7-2270.62 5020.27-1494.72 5796.17 758.92 758.91 2785.64 192.31 5616.04-1393.42 3003.44-1682.68 6854.62-4510.76 11035.51-8137.75 104.09-90.07 261.5-78.7 351.57 25.39s78.7 261.5-25.39 351.57c-4207.88 3650.4-8087.77 6498.89-11117.55 8196.33-3038.61 1702.38-5274.3 2250.79-6213.7 1311.4-957.16-957.16-367.56-3263.75 1414.64-6395.79 1776.54-3122.11 4740.57-7115.53 8522.63-11427.74m20724.54-4991.78c-90.6 104.09-248.45 115.02-352.54 24.42s-115.02-248.45-24.42-352.54c3673.41-4218.46 6540.88-8108.12 8249.16-11140.87 1612.38-2862.51 2192.8-4913.17 1428.13-5677.84-262.85-262.85-694.27-360.64-1271.19-307.5-645.33 59.44-1457.04 306.66-2407.85 723.61-126.2 55.01-273.12-2.71-328.13-128.91s2.71-273.12 128.91-328.13c997.89-437.6 1861.26-698.12 2562.15-762.67 730.09-67.25 1295.79 76.24 1669.63 450.08 945.55 945.55 383.27 3205.27-1346.11 6275.5-1725.39 3063.13-4613.35 6982.29-8307.74 11224.85m-332.71-13788.36c112.72-78.74 267.94-51.2 346.68 61.52s51.2 267.94-61.52 346.68c-1146.48 802.25-2359.77 1708.77-3622.69 2708.02-1237.03 978.77-2533.13 2056.87-3872.34 3223.68-104.09 90.6-261.94 79.67-352.54-24.42s-79.67-261.94 24.42-352.54c1324.25-1153.78 2627.26-2236.75 3891.86-3237.34 1271.51-1006.05 2492.65-1918.45 3646.13-2725.6" fill="#000000" fill-rule="nonzero" data-fill-palette-color="accent"></path></svg></g></svg></g></svg></g><defs></defs></svg><rect width="395.52" height="108.1056552076332" fill="none" stroke="none" visibility="hidden"></rect></g></svg></g></svg>